<?xml version="1.0" encoding="UTF-8"?> <!-- Generator: Adobe Illustrator 24.1.3, SVG Export Plug-In . SVG Version: 6.00 Build 0) --> <svg xmlns="http://www.w3.org/2000/svg" xmlns:xlink="http://www.w3.org/1999/xlink" version="1.1" id="Layer_1" x="0px" y="0px" viewBox="0 0 120 135" style="enable-background:new 0 0 120 135;" xml:space="preserve"> <style type="text/css"> .st0{fill:#F8C623;} .st1{fill:#FFFFFF;} </style> <path class="st0" d="M52,4.6L9.6,29.2c-4.9,2.9-8,8.1-8,13.8v49c0,5.7,3,11,8,13.8L52,130.4c4.9,2.9,11,2.9,16,0l42.5-24.5 c4.9-2.9,8-8.1,8-13.8V43c0-5.7-3-11-8-13.8L68,4.6C63,1.8,57,1.8,52,4.6z"></path> <g> <g> <path class="st1" d="M78.1,97.9H42c-1.7,0-3-1.3-3-3V64.1h-8.1c-1.3,0-2.5-0.8-2.9-2.1l-4-12.4c-0.5-1.5,0.2-3.1,1.7-3.7L46,37.4 c0.8-0.3,1.6-0.3,2.4,0c1.3,0.6,6,2.5,11.7,2.5s10.4-1.9,11.7-2.5c0.8-0.3,1.6-0.3,2.4,0l20.2,8.5h0c1.4,0.6,2.2,2.2,1.7,3.7 L92,62c-0.4,1.2-1.5,2.1-2.9,2.1h-8.1v30.8C81.1,96.6,79.7,97.9,78.1,97.9z M42.2,94.7h35.6V63.9c0-1.7,1.3-3,3-3H89l3.9-12.1 l-20-8.4c-1.9,0.8-6.8,2.7-12.9,2.7c-6.1,0-11-1.9-12.9-2.7l-20,8.4l3.9,12.1h8.1c1.7,0,3,1.3,3,3V94.7z M93.1,48.9 C93.1,48.9,93.1,48.9,93.1,48.9L93.1,48.9z"></path> </g> <g> <path class="st1" d="M59.9,50.6c-6.9,0-12.9-4.7-14.4-11.4l3.1-0.7c1.2,5.3,5.9,9,11.3,9c5.4,0,10.1-3.7,11.3-9l3.1,0.7 C72.8,45.9,66.8,50.6,59.9,50.6z"></path> </g> </g> </svg> 