<?xml version="1.0" encoding="UTF-8" standalone="no"?>
<!-- Created with Inkscape (http://www.inkscape.org/) -->

<svg
   xmlns:dc="http://purl.org/dc/elements/1.1/"
   xmlns:cc="http://creativecommons.org/ns#"
   xmlns:rdf="http://www.w3.org/1999/02/22-rdf-syntax-ns#"
   xmlns:svg="http://www.w3.org/2000/svg"
   xmlns="http://www.w3.org/2000/svg"
   xmlns:xlink="http://www.w3.org/1999/xlink"
   xmlns:sodipodi="http://sodipodi.sourceforge.net/DTD/sodipodi-0.dtd"
   xmlns:inkscape="http://www.inkscape.org/namespaces/inkscape"
   width="300.99197mm"
   height="685.51965mm"
   viewBox="0 0 300.99198 685.51965"
   id="svg2"
   version="1.1"
   inkscape:version="0.91+devel r"
   sodipodi:docname="drawing.svg">
  <defs
     id="defs4">
    <linearGradient
       inkscape:collect="always"
       id="linearGradient7662">
      <stop
         style="stop-color:#0040bf;stop-opacity:1"
         offset="0"
         id="stop7664" />
      <stop
         style="stop-color:#003497;stop-opacity:1"
         offset="1"
         id="stop7666" />
    </linearGradient>
    <linearGradient
       id="linearGradient7593"
       inkscape:collect="always">
      <stop
         id="stop7595"
         offset="0"
         style="stop-color:#e1c446;stop-opacity:1;" />
      <stop
         style="stop-color:#9d8111;stop-opacity:0.89560437"
         offset="0.48770773"
         id="stop7597" />
      <stop
         id="stop7599"
         offset="1"
         style="stop-color:#e1c446;stop-opacity:1" />
    </linearGradient>
    <linearGradient
       inkscape:collect="always"
       id="linearGradient4145">
      <stop
         style="stop-color:#e1c446;stop-opacity:1;"
         offset="0"
         id="stop4147" />
      <stop
         id="stop4153"
         offset="0.48334736"
         style="stop-color:#f8ecbd;stop-opacity:1" />
      <stop
         style="stop-color:#e1c446;stop-opacity:1"
         offset="1"
         id="stop4149" />
    </linearGradient>
    <linearGradient
       inkscape:collect="always"
       xlink:href="#linearGradient4145"
       id="linearGradient4151"
       x1="-21.16667"
       y1="223.67262"
       x2="198.81548"
       y2="30.904762"
       gradientUnits="userSpaceOnUse" />
    <radialGradient
       inkscape:collect="always"
       xlink:href="#linearGradient7593"
       id="radialGradient7611"
       cx="94.494041"
       cy="130.69048"
       fx="94.494041"
       fy="130.69048"
       r="150.49599"
       gradientTransform="matrix(1,0,0,0.99636178,0,0.47548064)"
       gradientUnits="userSpaceOnUse" />
    <linearGradient
       inkscape:collect="always"
       xlink:href="#linearGradient4145"
       id="linearGradient7644"
       x1="166.72032"
       y1="445.88898"
       x2="180.38152"
       y2="445.88898"
       gradientUnits="userSpaceOnUse" />
    <linearGradient
       inkscape:collect="always"
       xlink:href="#linearGradient4145"
       id="linearGradient7646"
       x1="10.71339"
       y1="451.82938"
       x2="23.198854"
       y2="451.82938"
       gradientUnits="userSpaceOnUse" />
    <linearGradient
       inkscape:collect="always"
       xlink:href="#linearGradient4145"
       id="linearGradient7650"
       gradientUnits="userSpaceOnUse"
       x1="-21.16667"
       y1="223.67262"
       x2="198.81548"
       y2="30.904762" />
    <radialGradient
       inkscape:collect="always"
       xlink:href="#linearGradient7593"
       id="radialGradient7652"
       gradientUnits="userSpaceOnUse"
       gradientTransform="matrix(1,0,0,0.99636178,0,0.47548064)"
       cx="94.494041"
       cy="130.69048"
       fx="94.494041"
       fy="130.69048"
       r="150.49599" />
    <radialGradient
       inkscape:collect="always"
       xlink:href="#linearGradient7593"
       id="radialGradient7654"
       gradientUnits="userSpaceOnUse"
       gradientTransform="matrix(1,0,0,0.99636178,0,0.47548064)"
       cx="94.494041"
       cy="130.69048"
       fx="94.494041"
       fy="130.69048"
       r="150.49599" />
    <radialGradient
       inkscape:collect="always"
       xlink:href="#linearGradient7593"
       id="radialGradient7656"
       gradientUnits="userSpaceOnUse"
       gradientTransform="matrix(1,0,0,0.99636178,0,0.47548064)"
       cx="94.494041"
       cy="130.69048"
       fx="94.494041"
       fy="130.69048"
       r="150.49599" />
    <radialGradient
       inkscape:collect="always"
       xlink:href="#linearGradient7593"
       id="radialGradient7658"
       gradientUnits="userSpaceOnUse"
       gradientTransform="matrix(1,0,0,0.99636178,0,0.47548064)"
       cx="94.494041"
       cy="130.69048"
       fx="94.494041"
       fy="130.69048"
       r="150.49599" />
    <radialGradient
       inkscape:collect="always"
       xlink:href="#linearGradient7593"
       id="radialGradient7660"
       gradientUnits="userSpaceOnUse"
       gradientTransform="matrix(1,0,0,0.99636178,0,0.47548064)"
       cx="94.494041"
       cy="130.69048"
       fx="94.494041"
       fy="130.69048"
       r="150.49599" />
    <linearGradient
       inkscape:collect="always"
       xlink:href="#linearGradient7662"
       id="linearGradient7668"
       x1="563.34497"
       y1="2309.687"
       x2="576.04559"
       y2="1141.2255"
       gradientUnits="userSpaceOnUse" />
  </defs>
  <sodipodi:namedview
     fit-margin-bottom="0"
     fit-margin-right="0"
     fit-margin-left="0"
     fit-margin-top="0"
     id="base"
     pagecolor="#ffffff"
     bordercolor="#666666"
     borderopacity="1.0"
     inkscape:pageopacity="0.0"
     inkscape:pageshadow="2"
     inkscape:zoom="0.15747202"
     inkscape:cx="571.53161"
     inkscape:cy="1266.2658"
     inkscape:document-units="mm"
     inkscape:current-layer="layer1"
     showgrid="false"
     inkscape:window-width="1301"
     inkscape:window-height="714"
     inkscape:window-x="65"
     inkscape:window-y="24"
     inkscape:window-maximized="1"
     showguides="false" />
  <metadata
     id="metadata7">
    <rdf:RDF>
      <cc:Work
         rdf:about="">
        <dc:format>image/svg+xml</dc:format>
        <dc:type
           rdf:resource="http://purl.org/dc/dcmitype/StillImage" />
        <dc:title></dc:title>
      </cc:Work>
    </rdf:RDF>
  </metadata>
  <g
     inkscape:label="Camada 1"
     inkscape:groupmode="layer"
     id="layer1"
     transform="translate(56.001953,19.257982)">
    <path
       id="path7620"
       d="m 12.871893,243.43096 0,378.99661 14.242006,-84.77533 11.18542,73.32902 0,-367.5503 -25.427426,0 z"
       style="opacity:1;fill:#ffffff;fill-opacity:1;fill-rule:nonzero;stroke:none;stroke-width:0.51632506;stroke-miterlimit:4;stroke-dasharray:none;stroke-opacity:0.60439561"
       inkscape:connector-curvature="0" />
    <path
       style="opacity:1;fill:url(#linearGradient7668);fill-opacity:1;fill-rule:nonzero;stroke:none;stroke-width:5.6692915;stroke-miterlimit:4;stroke-dasharray:none;stroke-opacity:0.60439561"
       d="m 218.0625,924.11719 0,1664.98441 390.84766,-372.4297 306.96484,322.1445 0,-1614.69921 -697.8125,0 z"
       transform="matrix(0.26458334,0,0,0.26458334,-55.516492,-18.77148)"
       id="rect7613"
       inkscape:connector-curvature="0" />
    <path
       style="opacity:1;fill:url(#linearGradient7644);fill-opacity:1;fill-rule:nonzero;stroke:none;stroke-width:1.53143728;stroke-miterlimit:4;stroke-dasharray:none;stroke-opacity:1"
       d="m 167.48604,243.32207 12.12975,0 0,402.01515 -12.12975,-12.77181 z"
       id="rect7624"
       inkscape:connector-curvature="0"
       sodipodi:nodetypes="ccccc" />
    <path
       style="opacity:1;fill:url(#linearGradient7646);fill-opacity:1;fill-rule:nonzero;stroke:none;stroke-width:1.57634747;stroke-miterlimit:4;stroke-dasharray:none;stroke-opacity:1"
       d="m 10.71339,243.32207 12.485465,0 0,402.90622 -12.485465,11.88076 z"
       id="rect7622"
       inkscape:connector-curvature="0"
       sodipodi:nodetypes="ccccc" />
    <path
       sodipodi:type="star"
       style="opacity:1;fill:url(#linearGradient7650);fill-opacity:1;fill-rule:nonzero;stroke:none;stroke-width:1.58749998;stroke-miterlimit:4;stroke-dasharray:none;stroke-opacity:1"
       id="path4141"
       sodipodi:sides="30"
       sodipodi:cx="94.494041"
       sodipodi:cy="130.69048"
       sodipodi:r1="149.76636"
       sodipodi:r2="143.77571"
       sodipodi:arg1="0.82109728"
       sodipodi:arg2="0.92581704"
       inkscape:flatsided="false"
       inkscape:rounded="0.2"
       inkscape:randomized="0"
       d="m 196.54761,240.30357 c -2.41328,2.24684 -12.9833,3.29755 -15.61822,5.27983 -2.63491,1.98228 -6.57405,11.847 -9.40174,13.54299 -2.82768,1.696 -13.38518,0.52612 -16.37466,1.91725 -2.98947,1.39113 -8.89352,10.22128 -12.01204,11.29231 -3.11851,1.07102 -13.20207,-2.26832 -16.41545,-1.52914 -3.21338,0.73919 -10.8243,8.14886 -14.09735,8.54811 -3.27304,0.39924 -12.44196,-4.96362 -15.738807,-4.90869 -3.296846,0.0549 -12.282011,5.72029 -15.566538,5.4303 -3.284528,-0.28998 -11.138084,-7.44197 -14.374308,-8.07369 -3.236223,-0.63172 -13.202933,3.0417 -16.355395,2.07517 -3.152463,-0.96654 -9.347416,-9.59509 -12.381578,-10.88586 -3.034162,-1.29076 -13.546824,0.2302 -16.429443,-1.37065 -2.882619,-1.60085 -7.14822,-11.32886 -9.847714,-13.22225 -2.6994933,-1.8934 -13.2986541,-2.59138 -15.7854456,-4.75658 -2.4867917,-2.16519 -4.6366134,-12.56749 -6.8834574,-14.98076 -2.246844,-2.41328 -12.469269,-5.2997 -14.451548,-7.93461 -1.98228,-2.63492 -1.922365,-13.25687 -3.618361,-16.08455 -1.695997,-2.82769 -11.094917,-7.7764 -12.486049,-10.76587 -1.391132,-2.98948 0.875901,-13.36685 -0.195125,-16.48537 -1.071026,-3.11851 -9.235664,-9.91322 -9.97485,-13.1266 -0.739185,-3.21338 3.635886,-12.89264 3.23664,-16.16569 -0.399247,-3.27304 -6.972768,-11.61679 -7.027701,-14.91364 -0.05493,-3.29684 6.236964,-11.85497 6.526947,-15.13949 0.289982,-3.28453 -4.405129,-12.81266 -3.773409,-16.04889 0.63172,-3.236221 8.565458,-10.299167 9.531995,-13.45163 0.966537,-3.152462 -1.644964,-13.448551 -0.354199,-16.482713 1.290764,-3.034162 10.5196,-8.293249 12.120449,-11.175868 1.60085,-2.882619 1.187094,-13.496676 3.08049,-16.196169 1.893395,-2.699494 12.013985,-5.924874 14.179182,-8.411666 2.165198,-2.486791 3.9672693,-12.95493 6.3805461,-15.201774 C -5.146252,18.830536 5.4237723,17.779827 8.0586882,15.797548 10.693604,13.815269 14.632744,3.9505557 17.46043,2.2545592 20.288117,0.55856265 30.845615,1.7284456 33.835091,0.33731358 36.824566,-1.0538184 42.728616,-9.8839703 45.847128,-10.954996 c 3.118512,-1.071026 13.202072,2.2683195 16.415453,1.529134 3.213381,-0.739186 10.824305,-8.148856 14.097348,-8.548103 3.273044,-0.399246 12.441965,4.963617 15.738811,4.908684 3.296846,-0.05493 12.28201,-5.720285 15.56654,-5.430303 3.28453,0.289982 11.13808,7.441979 14.37431,8.0737 3.23622,0.6317199 13.20293,-3.04171 16.35539,-2.075173 3.15246,0.966538 9.34742,9.5950926 12.38158,10.885857 3.03416,1.2907643 13.54682,-0.2301965 16.42944,1.37065319 2.88262,1.60084981 7.14822,11.32885381 9.84772,13.22224881 2.69949,1.893396 13.29865,2.591377 15.78544,4.756575 2.48679,2.165197 4.63661,12.567489 6.88346,14.980766 2.24684,2.413277 12.46927,5.299695 14.45155,7.934611 1.98228,2.634916 1.92236,13.256865 3.61836,16.084551 1.69599,2.827686 11.09492,7.776391 12.48605,10.765866 1.39113,2.989476 -0.8759,13.366854 0.19512,16.485366 1.07103,3.118511 9.23567,9.913221 9.97485,13.126601 0.73919,3.213382 -3.63588,12.892642 -3.23664,16.165692 0.39925,3.27304 6.97277,11.61679 7.0277,14.91364 0.0549,3.29685 -6.23696,11.85497 -6.52694,15.13949 -0.28999,3.28453 4.40513,12.81267 3.7734,16.04889 -0.63172,3.23622 -8.56545,10.29917 -9.53199,13.45163 -0.96654,3.15246 1.64496,13.44855 0.3542,16.48271 -1.29077,3.03417 -10.5196,8.29325 -12.12045,11.17587 -1.60085,2.88262 -1.18709,13.49668 -3.08049,16.19617 -1.8934,2.69949 -12.01398,5.92487 -14.17918,8.41167 -2.1652,2.48679 -3.96727,12.95493 -6.38055,15.20177 z" />
    <g
       id="g7570"
       style="fill-opacity:1;stroke:url(#radialGradient7611);stroke-width:1.5;stroke-miterlimit:4;stroke-dasharray:none">
      <path
         inkscape:connector-curvature="0"
         id="path4155"
         d="m 196.54761,240.30357 c -2.41328,2.24684 -12.9833,3.29755 -15.61822,5.27983 -2.63491,1.98228 -6.57405,11.847 -9.40174,13.54299 -2.82768,1.696 -13.38518,0.52612 -16.37466,1.91725 -2.98947,1.39113 -8.89352,10.22128 -12.01204,11.29231 -3.11851,1.07102 -13.20207,-2.26832 -16.41545,-1.52914 -3.21338,0.73919 -10.8243,8.14886 -14.09735,8.54811 -3.27304,0.39924 -12.44196,-4.96362 -15.738807,-4.90869 -3.296846,0.0549 -12.282011,5.72029 -15.566538,5.4303 -3.284528,-0.28998 -11.138084,-7.44197 -14.374308,-8.07369 -3.236223,-0.63172 -13.202933,3.0417 -16.355395,2.07517 -3.152463,-0.96654 -9.347416,-9.59509 -12.381578,-10.88586 -3.034162,-1.29076 -13.546824,0.2302 -16.429443,-1.37065 -2.882619,-1.60085 -7.14822,-11.32886 -9.847714,-13.22225 -2.6994933,-1.8934 -13.2986541,-2.59138 -15.7854456,-4.75658 -2.4867917,-2.16519 -4.6366134,-12.56749 -6.8834574,-14.98076 -2.246844,-2.41328 -12.469269,-5.2997 -14.451548,-7.93461 -1.98228,-2.63492 -1.922365,-13.25687 -3.618361,-16.08455 -1.695997,-2.82769 -11.094917,-7.7764 -12.486049,-10.76587 -1.391132,-2.98948 0.875901,-13.36685 -0.195125,-16.48537 -1.071026,-3.11851 -9.235664,-9.91322 -9.97485,-13.1266 -0.739185,-3.21338 3.635886,-12.89264 3.23664,-16.16569 -0.399247,-3.27304 -6.972768,-11.61679 -7.027701,-14.91364 -0.05493,-3.29684 6.236964,-11.85497 6.526947,-15.13949 0.289982,-3.28453 -4.405129,-12.81266 -3.773409,-16.04889 0.63172,-3.236221 8.565458,-10.299167 9.531995,-13.45163 0.966537,-3.152462 -1.644964,-13.448551 -0.354199,-16.482713 1.290764,-3.034162 10.5196,-8.293249 12.120449,-11.175868 1.60085,-2.882619 1.187094,-13.496676 3.08049,-16.196169 1.893395,-2.699494 12.013985,-5.924874 14.179182,-8.411666 2.165198,-2.486791 3.9672693,-12.95493 6.3805461,-15.201774 C -5.146252,18.830536 5.4237723,17.779827 8.0586882,15.797548 10.693604,13.815269 14.632744,3.9505557 17.46043,2.2545592 20.288117,0.55856265 30.845615,1.7284456 33.835091,0.33731358 36.824566,-1.0538184 42.728616,-9.8839703 45.847128,-10.954996 c 3.118512,-1.071026 13.202072,2.2683195 16.415453,1.529134 3.213381,-0.739186 10.824305,-8.148856 14.097348,-8.548103 3.273044,-0.399246 12.441965,4.963617 15.738811,4.908684 3.296846,-0.05493 12.28201,-5.720285 15.56654,-5.430303 3.28453,0.289982 11.13808,7.441979 14.37431,8.0737 3.23622,0.6317199 13.20293,-3.04171 16.35539,-2.075173 3.15246,0.966538 9.34742,9.5950926 12.38158,10.885857 3.03416,1.2907643 13.54682,-0.2301965 16.42944,1.37065319 2.88262,1.60084981 7.14822,11.32885381 9.84772,13.22224881 2.69949,1.893396 13.29865,2.591377 15.78544,4.756575 2.48679,2.165197 4.63661,12.567489 6.88346,14.980766 2.24684,2.413277 12.46927,5.299695 14.45155,7.934611 1.98228,2.634916 1.92236,13.256865 3.61836,16.084551 1.69599,2.827686 11.09492,7.776391 12.48605,10.765866 1.39113,2.989476 -0.8759,13.366854 0.19512,16.485366 1.07103,3.118511 9.23567,9.913221 9.97485,13.126601 0.73919,3.213382 -3.63588,12.892642 -3.23664,16.165692 0.39925,3.27304 6.97277,11.61679 7.0277,14.91364 0.0549,3.29685 -6.23696,11.85497 -6.52694,15.13949 -0.28999,3.28453 4.40513,12.81267 3.7734,16.04889 -0.63172,3.23622 -8.56545,10.29917 -9.53199,13.45163 -0.96654,3.15246 1.64496,13.44855 0.3542,16.48271 -1.29077,3.03417 -10.5196,8.29325 -12.12045,11.17587 -1.60085,2.88262 -1.18709,13.49668 -3.08049,16.19617 -1.8934,2.69949 -12.01398,5.92487 -14.17918,8.41167 -2.1652,2.48679 -3.96727,12.95493 -6.38055,15.20177 z"
         style="opacity:1;fill:none;fill-opacity:1;fill-rule:nonzero;stroke:url(#radialGradient7652);stroke-width:1.5;stroke-miterlimit:4;stroke-dasharray:none;stroke-opacity:1" />
      <path
         sodipodi:nodetypes="ssssss"
         inkscape:connector-curvature="0"
         id="path4160"
         d="M 183.98091,71.402156 C 216.72494,120.82437 203.20458,187.43328 153.78236,220.17731 104.36015,252.92134 37.75125,239.401 5.007211,189.9788 -27.736827,140.55658 -14.216484,73.947669 35.205736,41.20363 53.378226,29.163687 73.874398,23.378798 94.156286,23.333806 c 34.877094,-0.07737 69.120534,16.818616 89.824624,48.06835 z"
         style="opacity:1;fill:none;fill-opacity:1;fill-rule:nonzero;stroke:url(#radialGradient7654);stroke-width:1.5;stroke-miterlimit:4;stroke-dasharray:none;stroke-opacity:1" />
      <path
         style="opacity:1;fill:none;fill-opacity:1;fill-rule:nonzero;stroke:url(#radialGradient7656);stroke-width:1.5;stroke-miterlimit:4;stroke-dasharray:none;stroke-opacity:1"
         d="m 188.31911,231.46555 c -2.2187,2.06567 -11.93647,3.03167 -14.35894,4.85412 -2.42246,1.82245 -6.04399,10.89178 -8.64368,12.45103 -2.59969,1.55925 -12.30595,0.4837 -15.05439,1.76266 -2.74843,1.27896 -8.17644,9.39715 -11.04351,10.38182 -2.86707,0.98466 -12.1376,-2.08543 -15.09189,-1.40585 -2.95429,0.67959 -9.95154,7.49183 -12.96069,7.85888 -3.00914,0.36705 -11.438774,-4.5634 -14.469799,-4.5129 -3.031023,0.0505 -11.291721,5.25907 -14.311419,4.99246 -3.019699,-0.2666 -10.240029,-6.84193 -13.215318,-7.42272 -2.975289,-0.58078 -12.13839,2.79645 -15.036672,1.90785 -2.898282,-0.88861 -8.593741,-8.82144 -11.38326,-10.00814 -2.78952,-1.18668 -12.454554,0.21164 -15.104749,-1.26013 -2.650196,-1.47178 -6.571865,-10.41543 -9.053701,-12.15615 -2.481835,-1.74074 -12.226393,-2.38244 -14.5126763,-4.37306 -2.2862836,-1.99062 -4.26276674,-11.55419 -6.3284494,-13.77288 -2.0656826,-2.21869 -11.4638813,-4.87238 -13.2863303,-7.29484 -1.82245,-2.42247 -1.767366,-12.18798 -3.326615,-14.78767 -1.55925,-2.59969 -10.200342,-7.14939 -11.479308,-9.89782 -1.278966,-2.74844 0.805277,-12.2891 -0.179393,-15.15617 -0.98467,-2.86707 -8.490999,-9.11393 -9.170585,-12.06821 -0.679585,-2.95429 3.342727,-11.85312 2.975672,-14.86227 -0.367056,-3.00913 -6.410559,-10.68013 -6.461062,-13.71116 -0.0505,-3.03102 5.734082,-10.89911 6.000684,-13.9188 0.266601,-3.0197 -4.049947,-11.77959 -3.469162,-14.75488 0.580785,-2.97529 7.874831,-9.468757 8.763437,-12.367039 0.888606,-2.898281 -1.512332,-12.364204 -0.32564,-15.153724 1.186691,-2.78952 9.671412,-7.62457 11.143186,-10.274766 1.471775,-2.650195 1.09138,-12.408449 2.832113,-14.890284 1.740732,-2.481835 11.0453058,-5.447155 13.0359246,-7.733439 C -3.2064927,41.605185 -1.5497211,31.981084 0.66897496,29.915402 2.8876711,27.849719 12.605442,26.883728 15.027907,25.061279 17.450371,23.238829 21.071901,14.1695 23.671593,12.610251 26.271286,11.051001 35.97754,12.126557 38.725977,10.847591 41.474413,9.5686254 46.902424,1.4504421 49.769493,0.46577239 52.636561,-0.51889758 61.907091,2.551199 64.86138,1.8716134 c 2.954288,-0.6795859 9.951549,-7.4918197 12.960689,-7.8588757 3.009141,-0.3670551 11.438779,4.5634042 14.469802,4.5129004 3.031024,-0.050501 11.291719,-5.2590626 14.311419,-4.9924617 3.0197,0.266601 10.24003,6.84193776 13.21532,7.42272356 2.97529,0.58078484 12.13839,-2.79645916 15.03667,-1.90785333 2.89828,0.88860675 8.59374,8.82144737 11.38326,10.00813837 2.78952,1.186691 12.45455,-0.2116359 15.10475,1.260138 2.65019,1.471775 6.57186,10.415417 9.0537,12.156149 2.48184,1.740733 12.22639,2.382436 14.51268,4.373056 2.28628,1.990619 4.26276,11.554182 6.32845,13.772878 2.06568,2.218696 11.46388,4.872384 13.28633,7.294849 1.82245,2.422465 1.76736,12.187974 3.32661,14.787666 1.55925,2.599691 10.20035,7.149386 11.47931,9.897822 1.27897,2.748437 -0.80527,12.289094 0.17939,15.156163 0.98467,2.867068 8.49101,9.113925 9.17059,12.068213 0.67959,2.954291 -3.34273,11.853121 -2.97568,14.862261 0.36706,3.00914 6.41056,10.68014 6.46107,13.71117 0.0505,3.03102 -5.73408,10.89911 -6.00068,13.9188 -0.26661,3.0197 4.04995,11.7796 3.46915,14.75488 -0.58078,2.97529 -7.87482,9.46876 -8.76343,12.36704 -0.88861,2.89828 1.51233,12.3642 0.32564,15.15372 -1.1867,2.78952 -9.67141,7.62457 -11.14319,10.27477 -1.47177,2.65019 -1.09137,12.40845 -2.83211,14.89028 -1.74074,2.48183 -11.0453,5.44715 -13.03592,7.73344 -1.99062,2.28629 -3.64739,11.91039 -5.86609,13.97607 z"
         id="path7564"
         inkscape:connector-curvature="0" />
      <path
         inkscape:connector-curvature="0"
         id="path7566"
         d="m 180.60489,223.1799 c -2.03628,1.89583 -10.95507,2.78241 -13.17836,4.45502 -2.22329,1.67261 -5.54706,9.99627 -7.93301,11.42732 -2.38594,1.43105 -11.29416,0.44393 -13.81663,1.61773 -2.52245,1.17381 -7.50417,8.62453 -10.13552,9.52824 -2.63134,0.9037 -11.13965,-1.91397 -13.85104,-1.29027 -2.71139,0.62372 -9.13334,6.87586 -11.89508,7.21273 -2.76173,0.33688 -10.498283,-4.1882 -13.2801,-4.14185 -2.781814,0.0463 -10.363324,4.82667 -13.134745,4.58198 -2.771422,-0.24468 -9.398102,-6.27939 -12.128765,-6.81242 -2.730663,-0.53303 -11.140381,2.56652 -13.800369,1.75098 -2.659987,-0.81555 -7.88717,-8.09615 -10.447337,-9.18528 -2.560168,-1.08911 -11.430551,0.19424 -13.862849,-1.15652 -2.432299,-1.35077 -6.031531,-9.55908 -8.309313,-11.15668 -2.27778,-1.59762 -11.221148,-2.18656 -13.319455,-4.01351 -2.0983075,-1.82695 -3.9122858,-10.60421 -5.8081297,-12.64048 -1.8958438,-2.03628 -10.5213301,-4.47178 -12.1939388,-6.69507 -1.6726096,-2.2233 -1.6220545,-11.18589 -3.0531033,-13.57184 -1.4310502,-2.38594 -9.3616782,-6.56157 -10.5354882,-9.08403 -1.173811,-2.52246 0.739068,-11.2787 -0.164644,-13.91004 -0.903711,-2.63134 -7.792876,-8.36459 -8.416586,-11.07597 -0.623711,-2.71139 3.06789,-10.87857 2.731014,-13.64031 -0.336877,-2.76172 -5.883488,-9.80201 -5.929838,-12.58384 -0.04635,-2.78181 5.26263,-10.00299 5.507312,-12.7744 0.244681,-2.77143 -3.716964,-10.81108 -3.18393,-13.54175 0.533033,-2.73066 7.227368,-8.690242 8.042914,-11.35023 0.815545,-2.659986 -1.387989,-11.347629 -0.298866,-13.907797 1.089122,-2.560167 8.876236,-6.997683 10.227002,-9.429982 1.350767,-2.432299 1.001648,-11.388237 2.5992589,-13.666017 C -7.3670957,55.847833 1.1724634,53.12632 2.9994151,51.028012 4.8263676,48.929705 6.3469208,40.09689 8.3831974,38.201047 10.419474,36.305203 19.338258,35.418635 21.561549,33.746026 c 2.223291,-1.672609 5.547062,-9.996265 7.933009,-11.427314 2.385949,-1.43105 11.294162,-0.443925 13.816625,-1.617736 2.522462,-1.17381 7.504186,-8.624522 10.135527,-9.528233 2.63134,-0.903712 11.139654,1.913964 13.851044,1.290253 2.711389,-0.62371 9.133341,-6.8758478 11.895071,-7.2127247 2.761732,-0.3368761 10.498292,4.1882047 13.280107,4.1418533 2.781815,-0.046349 10.363318,-4.8266667 13.134748,-4.5819855 2.77142,0.2446813 9.3981,6.2793989 12.12876,6.8124329 2.73067,0.533033 11.14039,-2.5665362 13.80037,-1.7509909 2.65999,0.8155459 7.88717,8.0961549 10.44734,9.1852769 2.56017,1.089123 11.43055,-0.194235 13.86285,1.156531 2.43229,1.350767 6.03152,9.559069 8.30931,11.15668 2.27779,1.597611 11.22115,2.186554 13.31946,4.013507 2.0983,1.826952 3.91228,10.604206 5.80813,12.640483 1.89584,2.036276 10.52133,4.47178 12.19394,6.695072 1.67261,2.223292 1.62205,11.185888 3.0531,13.571836 1.43105,2.385946 9.36168,6.561569 10.53549,9.084031 1.17381,2.522462 -0.73906,11.278694 0.16464,13.910035 0.90371,2.63134 7.79288,8.364585 8.41659,11.075977 0.62371,2.71139 -3.06789,10.87856 -2.73102,13.64029 0.33688,2.76174 5.88349,9.80203 5.92984,12.58385 0.0463,2.78182 -5.26263,10.003 -5.50731,12.77441 -0.24469,2.77142 3.71697,10.81109 3.18392,13.54175 -0.53303,2.73066 -7.22736,8.69024 -8.0429,11.35023 -0.81555,2.65998 1.38798,11.34762 0.29886,13.90779 -1.08913,2.56017 -8.87623,6.99769 -10.227,9.42999 -1.35077,2.43229 -1.00164,11.38823 -2.59926,13.66601 -1.59762,2.27778 -10.13716,4.99929 -11.96412,7.0976 -1.82695,2.09832 -3.3475,10.93113 -5.38378,12.82697 z"
         style="opacity:1;fill:none;fill-opacity:1;fill-rule:nonzero;stroke:url(#radialGradient7658);stroke-width:1.5;stroke-miterlimit:4;stroke-dasharray:none;stroke-opacity:1" />
      <path
         style="opacity:1;fill:none;fill-opacity:1;fill-rule:nonzero;stroke:url(#radialGradient7660);stroke-width:1.5;stroke-miterlimit:4;stroke-dasharray:none;stroke-opacity:1"
         d="m 172.89067,214.89425 c -1.85386,1.72599 -9.97367,2.53315 -11.99778,4.05592 -2.02412,1.52277 -5.05013,9.10076 -7.22234,10.40361 -2.17219,1.30285 -10.28237,0.40416 -12.57887,1.4728 -2.29647,1.06866 -6.83191,7.8519 -9.22753,8.67466 -2.39561,0.82274 -10.1417,-1.74251 -12.61019,-1.17469 -2.46849,0.56785 -8.31514,6.25989 -10.82947,6.56658 -2.51432,0.3067 -9.557792,-3.813 -12.090401,-3.7708 -2.532605,0.0421 -9.434927,4.39427 -11.958071,4.1715 -2.523145,-0.22276 -8.556175,-5.71685 -11.042212,-6.20213 -2.486037,-0.48527 -10.142372,2.3366 -12.564066,1.59412 -2.421693,-0.74249 -7.180599,-7.37086 -9.511414,-8.36242 -2.330816,-0.99154 -10.406548,0.17684 -12.620949,-1.05291 -2.214402,-1.22976 -5.491197,-8.70273 -7.564925,-10.15721 -2.073725,-1.4545 -10.215904,-1.99068 -12.126234,-3.65396 -1.910331,-1.66328 -3.561805,-9.65423 -5.28781,-11.50809 -1.726005,-1.85386 -9.5787786,-4.07117 -11.1015469,-6.09529 -1.5227693,-2.02413 -1.4767431,-10.1838 -2.77959171,-12.35601 -1.30284989,-2.17219 -8.52301419,-5.97375 -9.59166859,-8.27024 -1.0686558,-2.29648 0.6728587,-10.2683 -0.1498944,-12.66391 -0.8227524,-2.39561 -7.0947524,-7.61525 -7.6625874,-10.08373 -0.567836,-2.46849 2.793053,-9.90402 2.486356,-12.41835 -0.306698,-2.51431 -5.356417,-8.9239 -5.398614,-11.45652 -0.0422,-2.5326 4.791178,-9.10687 5.01394,-11.63 0.222761,-2.52316 -3.38398,-9.84258 -2.898698,-12.32862 0.485281,-2.48603 6.579906,-7.91173 7.322391,-10.333421 0.742485,-2.421692 -1.263646,-10.331054 -0.272092,-12.66187 0.991553,-2.330815 8.08106,-6.370797 9.3108179,-8.585199 C -0.83302125,74.853668 -1.1508645,66.700046 0.30362476,64.626321 1.7581136,62.552594 9.532658,60.074887 11.195943,58.164556 c 1.663285,-1.910331 3.04762,-9.95186 4.901477,-11.677864 1.853857,-1.726005 9.973654,-2.53315 11.997771,-4.055919 2.024118,-1.522769 5.05013,-9.100752 7.222332,-10.4036 2.172205,-1.30285 10.282377,-0.404156 12.578866,-1.472812 2.296488,-1.068654 6.831925,-7.851896 9.227538,-8.674648 2.395612,-0.822753 10.14171,1.742502 12.610201,1.174666 2.46849,-0.567835 8.315132,-6.259876 10.829453,-6.566574 2.514323,-0.306697 9.557805,3.813005 12.090412,3.770806 2.532606,-0.0422 9.434917,-4.394271 11.958077,-4.171509 2.52314,0.222761 8.55617,5.71686 11.0422,6.202142 2.48605,0.485281 10.14238,-2.336613 12.56407,-1.594129 2.4217,0.742486 7.1806,7.370863 9.51142,8.362416 2.33082,0.991554 10.40654,-0.176834 12.62095,1.052924 2.21439,1.229758 5.49119,8.702721 7.56492,10.157211 2.07373,1.454489 10.21591,1.990672 12.12624,3.653957 1.91032,1.663285 3.5618,9.654231 5.28781,11.508088 1.726,1.853857 9.57878,4.071177 11.10155,6.095296 1.52277,2.024118 1.47674,10.183802 2.77959,12.356005 1.30285,2.172202 8.52301,5.973753 9.59167,8.27024 1.06865,2.296488 -0.67286,10.268295 0.14989,12.663908 0.82275,2.395612 7.09475,7.61525 7.66259,10.08374 0.56783,2.46849 -2.79306,9.904 -2.48636,12.41832 0.3067,2.51434 5.35641,8.92392 5.39861,11.45653 0.0421,2.53261 -4.79118,9.10689 -5.01394,11.63002 -0.22277,2.52314 3.38399,9.84258 2.89869,12.32862 -0.48528,2.48603 -6.5799,7.91172 -7.32238,10.33342 -0.74248,2.42168 1.26364,10.33104 0.27209,12.66186 -0.99156,2.33082 -8.08105,6.3708 -9.31082,8.58521 -1.22976,2.21439 -0.9119,10.36801 -2.3664,12.44174 -1.4545,2.07373 -9.22903,4.55143 -10.89232,6.46176 -1.66328,1.91035 -3.04761,9.95187 -4.90147,11.67787 z"
         id="path7568"
         inkscape:connector-curvature="0" />
    </g>
  </g>
</svg>
