<svg xmlns="http://www.w3.org/2000/svg" height="800" width="1200" preserveAspectRatio="xMidYMid" viewBox="0 -10 250 350"><path fill="#010101" d="M0 284.673c4.33-1.909 8.93-2.862 13.35-2.862 4.239 0 6.945 1.04 8.478 3.21 3.247-2.169 7.667-3.21 11.094-3.21 10.284 0 10.644 4.163 10.644 16.393v27.058c0 1.214.18 1.214-4.96 1.214v-28.794c0-8.846-.181-11.536-6.041-11.536-2.616 0-5.322.606-8.21 2.515v37.206c-.09.347-.27.434-.9.52-.092 0-.18.086-.272.086h-3.79v-28.792c0-8.499 0-11.622-6.131-11.622-2.616 0-5.231.52-8.3 1.995v37.207c0 1.215.182 1.215-4.96 1.215v-41.803m67.81-2.863c-7.666 0-16.143 2.168-16.143 25.326 0 17.867 6.221 20.641 14.792 20.641 6.581 0 12.265-2.168 12.265-3.21 0-1.3-.181-3.295-.631-4.423-2.797 1.908-6.767 2.948-11.184 2.948-6.043 0-10.101-1.734-10.194-15.177 3.97 0 14.073-.086 21.559-1.562.63-2.862.9-7.025.9-10.667 0-8.673-3.518-13.876-11.363-13.876m-.452 4.336c5.412 0 6.854 3.555 6.945 10.494 0 1.82-.09 3.989-.362 6.07-5.05 1.215-13.62 1.215-17.229 1.215.635-15.783 6.045-17.778 10.646-17.778m19.664-.52c4.237-2.776 8.119-3.816 12.086-3.816 4.42 0 6.495 1.214 6.495 2.69 0 .867-.273 2.342-.723 3.21-1.264-.695-2.704-1.302-5.053-1.302-2.885 0-5.59.78-7.754 2.688v36.167c0 1.214.09 1.214-5.051 1.214v-40.852m45.536-.953c0-1.128-3.787-2.862-7.576-2.862-7.309 0-16.237 2.515-16.237 23.937 0 20.293 5.414 22.116 14.883 22.116 4.689 0 8.93-2.515 8.93-3.902 0-.781-.179-1.996-.633-3.037-1.894 1.387-4.78 2.69-7.845 2.69-6.493 0-10.282-1.821-10.282-17.607 0-17.433 6.222-19.862 11.634-19.862 3.066 0 4.78.867 6.493 1.995.454-1.04.633-2.515.633-3.468m34.55 40.33c-3.969 1.995-9.198 2.776-13.71 2.776-11.545 0-13.26-4.855-13.26-16.391v-27.146c0-1.126-.087-1.126 5.054-1.126v28.794c0 8.673 1.261 11.622 8.026 11.622 2.615 0 6.224-.52 8.93-2.082v-37.207c0-1.126-.181-1.126 4.96-1.126v41.885m10.286-39.376c4.237-2.776 8.116-3.816 12.084-3.816 4.42 0 6.495 1.215 6.495 2.69 0 .867-.271 2.343-.721 3.21-1.264-.695-2.706-1.3-5.053-1.3-2.885 0-5.59.778-7.757 2.687v36.167c0 1.214.093 1.214-5.048 1.214v-40.852m30.16-2.515c-3.97 0-5.141 0-5.141 2.342v41.022c5.05 0 5.14 0 5.14-1.214v-42.15m-5.321-15.263c0 2.863.902 3.902 2.704 3.989 2.075 0 3.068-1.474 3.068-4.077.09-2.688-.633-3.902-2.706-3.902-1.983 0-2.976 1.475-3.066 3.99m13.878 17.778c0-.953.18-1.475.542-1.734 1.714-.954 8.3-2.082 15.785-2.082 5.684 0 9.29 2.69 9.29 10.494v5.637c0 15.438-.45 26.974-.45 26.974-2.075 1.126-5.953 2.862-12.269 2.862-6.493.086-12.986-.52-12.986-13.356 0-12.228 6.674-14.137 13.348-14.137 2.525 0 5.503.261 7.488 1.042v-8.067c0-5.637-2.885-6.851-6.315-6.851-4.598 0-11 .867-13.798 2.168-.542-.954-.635-2.429-.635-2.949m20.745 19.256c-1.713-.608-4.148-.867-5.862-.867-5.141 0-9.832 1.04-9.832 10.58 0 8.932 3.88 9.02 8.478 9.02 2.887 0 5.774-.78 6.764-1.82.002-.002.452-10.41.452-16.913m19.14 20.38c0 1.214.09 1.214-4.962 1.214v-61.404c0-2.342.993-2.342 4.962-2.342v62.532"/><g fill="#1B1A1B"><path d="M239.15 190.793c45.729-76.034-9.658-199.35-110.93-186.82-91.503 11.312-92.978 107.62-12.335 130.5 69.786 19.817 14.417 64.082 16.035 93.558 1.625 29.472 60.669 40.165 107.23-37.239z"/><path d="M81.333 238.733c21.074-5.542 33.686-27.198 28.169-48.37-5.517-21.171-27.073-33.841-48.148-28.299-21.075 5.542-33.686 27.198-28.169 48.37 5.517 21.171 27.073 33.841 48.148 28.299zM23.781 90.792C9.592 92.172-.795 104.834.579 119.089c1.376 14.265 13.98 24.707 28.172 23.327 14.187-1.398 24.583-14.057 23.203-28.313-1.379-14.245-13.981-24.691-28.173-23.311z"/></g><path fill="#BFBFBF" d="M239.34 187.383c45.442-75.902-9.594-199-110.23-186.5-90.923 11.292-92.39 107.44-12.258 130.28 69.344 19.783 14.326 63.97 15.934 93.398 1.616 29.418 60.283 40.09 106.55-37.18z"/><path d="M144.45 236.173c-2.754-4.487 1.457-9.472 5.786-9.093 6.89.607 21.892-.08 33.729-6.821 29.573-16.842 75.084-97.88 52.194-148.99-10.247-22.88-15.237-29.431-25.79-40.623-2.153-2.283-.917-2.159.54-1.386 5.707 3.009 15.736 14.663 26.022 33.632 17.38 32.049 16.478 70.148 10.014 94.048-4.503 16.626-20.011 54.239-42.722 70.5-22.763 16.3-49.398 25.65-59.773 8.734zm-20.6-105.16c-15.494-4.62-35.467-11.055-47.02-26.236-8.517-11.193-12.84-23.41-13.944-30.337-.393-2.472-.726-4.534-.018-5.103.328-.264 6.36 13.432 15.377 24.911 9.016 11.482 21.616 18.197 32.113 20.637 9.337 2.169 28.677 6.933 35.22 12.533 6.727 5.757 7.289 18.194 5.025 19.598-2.283 1.411-6.912-10.09-26.753-16.004z"/><path fill="#fff" d="M155.79 238.373c-.299 3.563 3.774 4.261 9.257 3.436 7.027-1.06 12.97-1.854 21.059-5.927 10.963-5.519 22.057-13.414 30.183-24.066 24.243-31.775 32.828-69.37 31.506-74.78-.442 4.467-6.294 27.911-19.68 49.047-17.19 27.15-29.655 41.61-58.404 48.62-8 1.953-13.53-1.02-13.921 3.67zm-63.76-123.56c3.274 2.79 9.983 6.508 23.184 10.857 15.944 5.251 23.706 9.806 26.957 11.988 3.445 2.318 5.628 7.489 5.844 2.896.225-4.598-2.596-8.552-8.89-10.65-4.26-1.42-11.424-4.803-18.29-6.164-4.413-.875-11.593-2.612-17.75-4.506-3.374-1.042-6.812-2.867-11.056-4.421z"/><path fill="#BFBFBF" d="M81.323 235.653c20.991-5.542 33.552-27.198 28.057-48.37-5.495-21.171-26.966-33.841-47.957-28.299-20.991 5.542-33.552 27.198-28.057 48.37 5.495 21.171 26.966 33.841 47.957 28.299z"/><path d="M47.984 226.193c30.559 28.561 76.557-10.671 56.302-45.323-2.274-3.89-5.227-6.852-4.256-3.872 6.473 19.925.491 35.687-10.67 43.808-10.942 7.965-25.983 9.298-38.024 3-3.536-1.848-5.003.846-3.351 2.387z"/><path fill="#fff" d="M71.962 232.063c3.89-.825 26.52-6.736 31.836-25.509 1.656-5.853 1.953-4.677 1.485-1.506-2.388 16.187-17.558 28.128-30.467 28.57-2.62.272-6.056-.88-2.854-1.555z"/><path fill="#BFBFBF" d="M23.999 87.712C9.866 89.092-.479 101.754.889 116.009c1.37 14.262 13.924 24.707 28.057 23.327 14.133-1.398 24.487-14.06 23.111-28.316-1.371-14.246-13.922-24.689-28.058-23.309z"/><path d="M12.335 133.243c.157 1.832 2.645 4.186 6.553 5.266 3.358.929 12.014 3.302 23.134-3.777 11.12-7.08 12.402-26.014 7.348-31.583-1.565-2.821-3.6-4.875-1.981-.373 4.089 11.368-3.856 22.001-10.71 26.925-6.85 4.924-15.537 2.594-19.085 1.503s-5.418.147-5.26 2.04z"/><path fill="#fff" d="M26.685 135.783c1.02-.925 6.179-.547 10.837-3.074 4.656-2.526 10.19-8.064 11.178-15.933.582-4.62.756-3.46.988-.944-.723 13.082-12.65 20.308-19.472 21.261-1.84.258-5.08.1-3.53-1.31z"/><path fill="#999" d="M230.73 138.073C250.001 82.05 209.675-2.557 128.09 7.623c-73.713 9.192-74.902 87.445-9.938 106.04 73.585 11.235 29.275 67.223 22.989 95.456-5.635 25.309 59.467 29.474 89.584-71.044z"/><path fill="#F3F3F3" d="M180.31 181.833c-19.935-2.488-48.622 42.907-21.573 37.59 27.045-5.312-27.049 5.316 0 0 13.001-1.945 23.771-6.574 33.413-17.674 12.572-14.47 31.352-45.726 36.783-65.922 4.575-17.028 2.276-43.409-2.441-18.622-4.837 25.438-26.248 67.116-46.183 64.628z"/><path fill="#999" d="M46.4 218.143c4.615.078 7.407.734 12.08 4.041 9.239 3.872 26.22 1.419 34.062-8.994 7.842-10.412 8.1-24.758 5.111-33.427-7.309-21.216-38.359-20.84-52.23-3.227-15.007 19.67-3.639 41.53.976 41.607zm-41.217-98.31c.92 2.922 3.27 7.185 8.234 7.896 6.628.949 7.984 3.97 15.81 2.402 7.827-1.567 13.76-8.036 16.133-15.192 2.718-9.901-1.351-15.014-7.476-19.578s-19.598-4.073-27.638 3.32c-5.714 5.25-7.303 14.039-5.063 21.152z"/><path fill="#F3F3F3" d="M31.213 126.373c6.014-1.588 13.968-9.853 10.019-16.164-4.872-7.775-18.444-1.12-18.903 7.537-.46 8.66 2.51 10.31 8.884 8.627zm45.157 93.29c5.131-1.355 20.851-7.807 17.898-30.856-1.494-11.675-7.808 14.49-19.5 18.404-17.713 5.929-15.723 17.027 1.601 12.452z"/></svg>